<svg width="268" height="705" viewBox="0 0 268 705" fill="none" xmlns="http://www.w3.org/2000/svg">
<path d="M36.4885 -14L216.472 627.014" stroke="#00A4B8" stroke-miterlimit="10"/>
<path d="M205.1 632.62C207.85 630.042 154.023 420.335 158.091 420.335C162.159 420.335 21.2817 -7.60949 21.2817 -11.428" stroke="#00A4B8" stroke-miterlimit="10"/>
<path d="M193.721 638.233C199.222 633.076 151.636 427.589 159.771 427.589C167.913 427.589 6.08136 -1.22503 6.08136 -8.84985" stroke="#00A4B8" stroke-miterlimit="10"/>
<path d="M182.341 643.839C190.594 636.104 149.242 434.843 161.451 434.843C173.661 434.843 -9.12549 5.16548 -9.12549 -6.27783" stroke="#00A4B8" stroke-miterlimit="10"/>
<path d="M170.962 649.445C181.965 639.133 146.854 442.097 163.138 442.097C179.415 442.097 -24.3258 11.5559 -24.3258 -3.69983" stroke="#00A4B8" stroke-miterlimit="10"/>
<path d="M159.583 655.051C173.33 642.167 144.467 449.351 164.818 449.351C185.17 449.351 -39.5392 17.9464 -39.5392 -1.1217" stroke="#00A4B8" stroke-miterlimit="10"/>
<path d="M148.204 660.663C164.702 645.201 142.08 456.611 166.499 456.611C190.918 456.611 -54.746 24.3368 -54.746 1.4502" stroke="#00A4B8" stroke-miterlimit="10"/>
<path d="M136.825 666.269C156.073 648.229 139.692 463.859 168.179 463.859C196.666 463.859 -69.9529 30.7275 -69.9529 4.02844" stroke="#00A4B8" stroke-miterlimit="10"/>
<path d="M125.446 671.876C147.445 651.257 137.298 471.113 169.859 471.113C202.42 471.113 -85.1529 37.118 -85.1529 6.60046" stroke="#00A4B8" stroke-miterlimit="10"/>
<path d="M114.066 677.482C138.816 654.285 134.911 478.367 171.539 478.367C208.168 478.367 -100.367 43.5084 -100.367 9.17847" stroke="#00A4B8" stroke-miterlimit="10"/>
<path d="M102.687 683.094C130.188 657.319 132.524 485.627 173.22 485.627C213.916 485.627 -115.567 49.899 -115.567 11.7566" stroke="#00A4B8" stroke-miterlimit="10"/>
<path d="M91.3146 688.7C121.566 660.347 130.143 492.881 174.907 492.881C219.671 492.881 -130.773 56.2894 -130.773 14.3285" stroke="#00A4B8" stroke-miterlimit="10"/>
<path d="M79.9355 694.306C112.938 663.375 127.755 500.129 176.593 500.129C225.432 500.129 -145.974 62.6739 -145.974 16.9006" stroke="#00A4B8" stroke-miterlimit="10"/>
<path d="M68.5562 699.912C104.309 666.403 125.361 507.382 178.274 507.382C231.186 507.382 -161.187 69.0705 -161.187 19.4788" stroke="#00A4B8" stroke-miterlimit="10"/>
<path d="M57.177 705.518C95.6806 669.431 122.974 514.636 179.954 514.636C236.934 514.636 -176.387 75.4609 -176.387 22.0568" stroke="#00A4B8" stroke-miterlimit="10"/>
<path d="M45.7981 711.13C87.0459 672.471 120.587 521.896 181.634 521.896C242.682 521.896 -191.594 81.8514 -191.594 24.6348" stroke="#00A4B8" stroke-miterlimit="10"/>
<path d="M34.4187 716.737C78.4173 675.499 118.199 529.15 183.314 529.15C248.43 529.15 -206.801 88.242 -206.801 27.213" stroke="#00A4B8" stroke-miterlimit="10"/>
<path d="M23.0398 722.343C69.789 678.527 115.812 536.398 184.995 536.398C254.178 536.398 -222.008 94.6264 -222.008 29.7789" stroke="#00A4B8" stroke-miterlimit="10"/>
<path d="M11.6606 727.949C61.1606 681.555 113.418 543.652 186.675 543.652C259.932 543.652 -237.215 101.017 -237.215 32.3569" stroke="#00A4B8" stroke-miterlimit="10"/>
<path d="M0.281388 733.561C52.5321 684.59 111.03 550.912 188.355 550.912C265.68 550.912 -252.421 107.407 -252.421 34.9351" stroke="#00A4B8" stroke-miterlimit="10"/>
<path d="M-11.0913 739.167C43.9101 687.618 108.649 558.166 190.048 558.166C271.448 558.166 -267.622 113.798 -267.622 37.5071" stroke="#00A4B8" stroke-miterlimit="10"/>
<path d="M-22.4705 744.774C35.2816 690.646 106.262 565.42 191.729 565.42C277.196 565.42 -282.829 120.188 -282.829 40.0852" stroke="#00A4B8" stroke-miterlimit="10"/>
<path d="M-33.8496 750.38C26.6532 693.674 103.874 572.668 193.409 572.668C282.944 572.668 -298.035 126.579 -298.035 42.6633" stroke="#00A4B8" stroke-miterlimit="10"/>
<path d="M-45.2286 755.992C18.025 696.708 101.481 579.928 195.089 579.928C288.698 579.928 -313.242 132.969 -313.242 45.2352" stroke="#00A4B8" stroke-miterlimit="10"/>
<path d="M-56.6078 761.598C9.39649 699.736 99.0932 587.182 196.77 587.182C294.446 587.182 -328.449 139.36 -328.449 47.8135" stroke="#00A4B8" stroke-miterlimit="10"/>
<path d="M-67.987 767.204C0.768007 702.77 96.7058 594.435 198.45 594.435C300.194 594.435 -343.656 145.75 -343.656 50.3854" stroke="#00A4B8" stroke-miterlimit="10"/>
<path d="M-79.366 772.81C-7.86034 705.798 94.3184 601.689 200.13 601.689C305.942 601.689 -358.856 152.141 -358.856 52.9635" stroke="#00A4B8" stroke-miterlimit="10"/>
<path d="M-90.7453 778.416C-16.4889 708.826 91.931 608.943 201.817 608.943C311.703 608.943 -374.063 158.532 -374.063 55.5416" stroke="#00A4B8" stroke-miterlimit="10"/>
<path d="M-102.124 784.029C-25.1173 711.86 89.5435 616.197 203.497 616.197C317.451 616.197 -389.27 164.916 -389.27 58.1135" stroke="#00A4B8" stroke-miterlimit="10"/>
<path d="M-113.497 789.635C-33.7455 714.888 87.1563 623.451 205.184 623.451C323.212 623.451 -404.476 171.306 -404.476 60.6917" stroke="#00A4B8" stroke-miterlimit="10"/>
<path d="M-124.876 795.241C-42.3743 717.916 84.7686 630.705 206.864 630.705C328.96 630.705 -419.683 177.697 -419.683 63.2637" stroke="#00A4B8" stroke-miterlimit="10"/>
<path d="M-136.255 800.847C-51.0025 720.95 82.3749 637.959 208.545 637.959C334.714 637.959 -434.89 184.087 -434.89 65.8418" stroke="#00A4B8" stroke-miterlimit="10"/>
<path d="M-147.634 806.459C-59.6309 723.978 79.9876 645.213 210.225 645.213C340.462 645.213 -450.09 190.478 -450.09 68.4198" stroke="#00A4B8" stroke-miterlimit="10"/>
<path d="M-159.014 812.065C-68.2594 727.007 77.6 652.467 211.905 652.467C346.21 652.467 -465.297 196.868 -465.297 70.9919" stroke="#00A4B8" stroke-miterlimit="10"/>
<path d="M-170.393 817.671C-76.8879 730.035 75.2126 659.721 213.585 659.721C351.958 659.721 -480.504 203.259 -480.504 73.5699" stroke="#00A4B8" stroke-miterlimit="10"/>
<path d="M-181.772 823.278C-85.5228 733.069 72.8251 666.975 215.266 666.975C357.706 666.975 -495.711 209.649 -495.711 76.142" stroke="#00A4B8" stroke-miterlimit="10"/>
<path d="M-193.151 828.89C-94.1513 736.103 70.4376 674.235 216.952 674.235C363.467 674.235 -510.918 216.04 -510.918 78.7201" stroke="#00A4B8" stroke-miterlimit="10"/>
<path d="M-204.53 834.496C-102.78 739.131 68.0437 681.482 218.633 681.482C369.221 681.482 -526.124 222.43 -526.124 81.2981" stroke="#00A4B8" stroke-miterlimit="10"/>
<path d="M-215.903 840.102C-111.402 742.159 65.6628 688.737 220.319 688.737C374.976 688.737 -541.325 228.821 -541.325 83.8702" stroke="#00A4B8" stroke-miterlimit="10"/>
<path d="M-227.282 845.708C-120.03 745.187 63.2754 695.99 222 695.99C380.724 695.99 -556.532 235.211 -556.532 86.4482" stroke="#00A4B8" stroke-miterlimit="10"/>
<path d="M-238.661 851.32C-128.658 748.221 60.8882 703.25 223.68 703.25C386.472 703.25 -571.738 241.596 -571.738 89.0203" stroke="#00A4B8" stroke-miterlimit="10"/>
<path d="M-250.041 856.926C-137.287 751.249 58.5004 710.504 225.36 710.504C392.22 710.504 -586.945 247.986 -586.945 91.5984" stroke="#00A4B8" stroke-miterlimit="10"/>
<path d="M-261.42 862.533C-145.915 754.277 56.1068 717.752 227.041 717.752C397.974 717.752 -602.152 254.377 -602.152 94.1765" stroke="#00A4B8" stroke-miterlimit="10"/>
<path d="M-272.799 868.139C-154.544 757.305 53.7192 725.006 228.721 725.006C403.722 725.006 -617.359 260.767 -617.359 96.7484" stroke="#00A4B8" stroke-miterlimit="10"/>
<path d="M-284.178 873.745C-163.172 760.333 51.3318 732.26 230.407 732.26C409.483 732.26 -632.565 267.158 -632.565 99.3265" stroke="#00A4B8" stroke-miterlimit="10"/>
<path d="M-295.557 879.357C-171.807 763.373 48.9444 739.52 232.088 739.52C415.231 739.52 -647.766 273.548 -647.766 101.899" stroke="#00A4B8" stroke-miterlimit="10"/>
<path d="M-306.936 884.963C-180.436 766.401 46.5569 746.774 233.768 746.774C420.979 746.774 -662.973 279.939 -662.973 104.477" stroke="#00A4B8" stroke-miterlimit="10"/>
<path d="M-318.315 890.569C-189.064 769.429 44.163 754.022 235.448 754.022C426.733 754.022 -678.179 286.329 -678.179 107.055" stroke="#00A4B8" stroke-miterlimit="10"/>
<path d="M-329.688 896.175C-197.686 772.457 41.7823 761.276 237.135 761.276C432.488 761.276 -693.386 292.72 -693.386 109.627" stroke="#00A4B8" stroke-miterlimit="10"/>
<path d="M-341.067 901.788C-206.314 775.491 39.3948 768.535 238.815 768.535C438.236 768.535 -708.593 299.11 -708.593 112.205" stroke="#00A4B8" stroke-miterlimit="10"/>
<path d="M-352.446 907.394C-214.943 778.52 37.0075 775.79 240.496 775.79C443.984 775.79 -723.8 305.501 -723.8 114.777" stroke="#00A4B8" stroke-miterlimit="10"/>
<path d="M-363.825 913C-223.571 781.548 34.6201 783.044 242.176 783.044C449.732 783.044 -739 311.891 -739 117.355" stroke="#00A4B8" stroke-miterlimit="10"/>
</svg>
